<svg width="16" height="15" viewBox="0 0 16 15" xmlns="http://www.w3.org/2000/svg">
<path d="M7.58881 3.55401L7.18613 2.992C6.93219 2.63758 6.64699 2.33821 6.3364 2.09585L6.33638 2.09583C5.72626 1.61967 5.04147 1.38107 4.2886 1.37776C3.26814 1.37328 2.33469 1.7759 1.65083 2.51107L7.58881 3.55401ZM7.58881 3.55401L7.99643 2.99558M7.58881 3.55401L7.99643 2.99558M7.99643 2.99558C8.25359 2.64328 8.5413 2.34654 8.85389 2.10691C9.4683 1.63609 10.1552 1.40351 10.908 1.40682C11.9285 1.4113 12.8583 1.82209 13.5357 2.56327C14.2068 3.29769 14.5856 4.31189 14.5807 5.43081C14.5757 6.55587 14.1585 7.60618 13.1934 8.76024L13.1934 8.76027C12.3145 9.8114 11.0431 10.8874 9.51517 12.1779L9.51512 12.1779L9.50156 12.1894C8.98695 12.6241 8.40212 13.1182 7.79504 13.6444L7.79478 13.6446C7.72567 13.7046 7.63665 13.7378 7.54413 13.7374C7.45162 13.7369 7.363 13.7031 7.29412 13.6422L7.29378 13.6419C6.68682 13.1065 6.1025 12.6041 5.58911 12.1626L5.58723 12.161L5.5872 12.161M7.99643 2.99558L5.5872 12.161M5.5872 12.161C4.07043 10.8569 2.80848 9.76967 1.93884 8.71096C0.983916 7.54832 0.575856 6.49438 0.580794 5.36947C0.585706 4.25045 0.973368 3.23962 1.65079 2.51112L5.5872 12.161Z" />
</svg>
