<svg width="15" height="13" viewBox="0 0 15 13" fill="none" xmlns="http://www.w3.org/2000/svg">
<path d="M13.6603 12.3928C13.9975 12.3928 14.2896 12.2814 14.538 12.0616L10.2883 7.81169C10.1863 7.8847 10.0875 7.9557 9.99411 8.02321C9.67608 8.25753 9.41796 8.44037 9.21976 8.57139C9.02158 8.70271 8.75791 8.83656 8.42877 8.97322C8.09941 9.11004 7.79257 9.17823 7.50792 9.17823H7.49959H7.49126C7.20659 9.17823 6.89975 9.11007 6.57042 8.97322C6.24108 8.83656 5.97741 8.70271 5.77942 8.57139C5.58124 8.44037 5.32326 8.25756 5.00507 8.02321C4.9164 7.95821 4.81806 7.88688 4.71174 7.81055L0.461182 12.0616C0.709523 12.2814 1.00187 12.3928 1.33902 12.3928H13.6603Z" fill="current"/>
<path d="M0.845514 5.13653C0.52751 4.92452 0.245509 4.68171 0 4.4082V10.8741L3.7457 7.12838C2.99635 6.60523 2.03085 5.94204 0.845514 5.13653Z" fill="current"/>
<path d="M14.1632 5.13653C13.0231 5.90822 12.0541 6.57255 11.2561 7.12988L15.0003 10.8742V4.4082C14.7602 4.67621 14.4812 4.91886 14.1632 5.13653Z" fill="current"/>
<path d="M13.6607 0.607422H1.33944C0.909593 0.607422 0.579117 0.752576 0.347606 1.04258C0.115904 1.33273 0.000244141 1.69559 0.000244141 2.13075C0.000244141 2.48225 0.153731 2.86311 0.46057 3.27343C0.767408 3.68359 1.09391 4.00576 1.43991 4.24011C1.62959 4.37412 2.2016 4.77178 3.15594 5.43296C3.67111 5.78996 4.11913 6.10113 4.50413 6.36965C4.83229 6.5983 5.1153 6.79631 5.34896 6.96064C5.37578 6.97946 5.41797 7.00963 5.47396 7.04966C5.53428 7.09299 5.61062 7.14798 5.70479 7.21598C5.88614 7.34713 6.03679 7.45315 6.15678 7.53415C6.27661 7.61516 6.42179 7.70566 6.59211 7.80615C6.76229 7.90651 6.9228 7.98197 7.07346 8.03216C7.22414 8.08233 7.36363 8.10749 7.49195 8.10749H7.50029H7.50862C7.63691 8.10749 7.77643 8.08233 7.92714 8.03216C8.07777 7.98197 8.23815 7.90667 8.40846 7.80615C8.57862 7.70566 8.72361 7.61497 8.84382 7.53415C8.96381 7.45315 9.11446 7.34716 9.29584 7.21598C9.38982 7.14798 9.46615 7.09297 9.52647 7.0498C9.58249 7.0096 9.62465 6.97962 9.65164 6.96064C9.83367 6.83398 10.1173 6.63678 10.4987 6.37196C11.1927 5.8898 12.2147 5.18012 13.569 4.24011C13.9764 3.9556 14.3167 3.61227 14.5902 3.2106C14.8632 2.80894 15.0001 2.38761 15.0001 1.94676C15.0001 1.57843 14.8674 1.26326 14.6025 1.00075C14.3374 0.738578 14.0234 0.607422 13.6607 0.607422Z" fill="current"/>
</svg>
